<?xml version="1.0" encoding="UTF-8"?>
<!DOCTYPE svg PUBLIC "-//W3C//DTD SVG 1.1//EN" "http://www.w3.org/Graphics/SVG/1.1/DTD/svg11.dtd">
<!-- Creator: CorelDRAW -->
<svg xmlns="http://www.w3.org/2000/svg" xml:space="preserve" width="297mm" height="210mm" style="shape-rendering:geometricPrecision; text-rendering:geometricPrecision; image-rendering:optimizeQuality; fill-rule:evenodd; clip-rule:evenodd"
viewBox="0 0 297 210"
 xmlns:xlink="http://www.w3.org/1999/xlink">
 <defs>
  <style type="text/css">
   <![CDATA[
    .fil0 {fill:#1F317F}
    .fil1 {fill:#1F317F;fill-rule:nonzero}
   ]]>
  </style>
 </defs>
 <g id="Ebene_x0020_1">
  <metadata id="CorelCorpID_0Corel-Layer"/>
  <g id="_96467336">
   <path id="_96467000" class="fil0" d="M214.007 139.519l-1.7324 0.3769c-2.5303,-1.2493 -5.0477,-1.821 -8.1663,-1.8277 -1.6356,0 -0.6787,-0.9326 0.4047,-0.7974 3.1545,0.0046 6.8261,0.9709 9.494,2.2482zm-187.756 -29.5929c1.9543,-2.837 4.2584,-4.5534 7.2189,-6.017 -1.4056,1.1421 -4.0577,3.3938 -5.4084,5.4038 10.2329,1.4305 19.2558,3.9729 28.484,8.3651 13.1848,6.1496 27.1858,9.82 36.2821,10.1941 1.0009,0.2642 2.4679,0.817 1.6946,0.817 -10.8898,-0.3072 -27.9875,-4.5161 -38.4301,-10.1798 -2.7931,-1.7004 -19.4821,-6.9193 -29.8411,-8.5832zm229.84 -1.9892c-1.4756,8.6704 -9.8765,17.9852 -11.5989,17.7585 2.6111,-2.698 8.2244,-9.7716 11.5989,-17.7585zm-123.584 -0.4044c-12.6941,3.6573 -43.5131,13.0147 -60.1708,4.9344 15.8089,2.4784 32.2265,0.3086 60.1708,-4.9344zm71.1974 10.1111l-7.8885 -12.74c-0.0855,-0.9424 -0.784,-3.4378 0.8091,-3.4378 1.2045,0 2.7971,3.0314 3.4992,3.9839 3.0369,4.1217 5.9991,9.1576 8.2322,13.8116 -6.3175,3.7643 -11.7914,6.6792 -17.1118,8.8371l-2.0303 -1.6261c5.6666,-3.1901 11.2054,-5.0192 14.4901,-8.8287zm-106.648 -10.4959c19.313,-0.4243 45.3326,-16.0656 62.0839,-4.988 -15.1088,-8.0738 -38.6559,6.3085 -62.0839,4.988zm75.9849 26.2556c-20.0038,-4.4325 -49.734,-17.1706 -67.0345,-8.2033 17.2819,-5.2975 43.864,6.9699 67.0345,8.2033zm43.0129 -29.6194c2.1285,-0.924 -9.0525,-14.6628 -9.0525,-16.1302 0,-2.9314 2.4708,-0.5122 3.175,0.6676l14.7657 20.8289c-1.1297,2.3542 -2.4471,3.6399 -4.8544,3.6399l-12.8217 -1.3363c-0.6576,-0.3579 -5.443,-8.3844 -5.7258,-9.3602 5.5154,0.3881 12.6079,1.4815 14.5137,1.6903zm-56.0389 -20.1139c-8.1436,5.6568 -54.967,24.1754 -87.1766,20.6268 31.7252,-1.2718 60.3761,-12.0919 87.1766,-20.6268zm86.5696 -2.4266c-5.9501,1.2642 -8.2226,2.2365 -13.5519,5.0555l-0.786 -0.503c4.139,-3.2183 10.6665,-5.2634 14.3379,-4.5525zm-93.0422 10.9199c12.0661,-1.4811 23.1915,-16.1104 38.4305,-12.5379 -14.7882,-0.4541 -25.3594,12.7589 -38.4305,12.5379zm80.7041 6.8756c-3.3206,-4.6707 -13.8167,-16.6911 -15.3723,-21.2333 0,-4.5087 7.3574,5.1664 7.9279,6.0269l13.3317 17.6113c2.0847,2.9925 -0.3328,6.2908 -3.4603,6.2908l-10.1208 -1.3559c-0.8997,-0.667 -5.1492,-6.3138 -5.2514,-7.5419 2.7457,-0.6404 11.5171,2.3344 12.9452,0.2021zm-6.2703 -30.5357c16.2826,-0.3763 30.8169,8.5631 38.1196,17.5607l0.3576 1.1129c-8.7327,-8.3963 -20.2168,-16.8199 -38.4772,-18.6736zm22.4982 1.2133l-1.0583 0c-4.9831,-3.0709 -13.2901,-5.0555 -19.0162,-5.0555 3.4813,-1.6732 18.0538,1.6755 20.0745,5.0555zm-63.9481 58.2077l1.0112 0.9551 -6.501 0.0134 0.0453 10.1511 1.199 0.4941 0.0048 -10.0588 12.1289 0.0034 -0.0411 12.9583c-2.0016,-0.2341 -4.4776,-1.1292 -6.2292,0.0435 0.7559,1.428 4.3936,2.7429 6.878,2.7443 2.4844,0.0014 4.2338,-1.9562 7.9296,-1.2955 3.6958,0.6608 9.6323,0.8727 13.9975,2.1923 4.3651,1.3196 2.1869,-0.2791 5.8918,-1.1051 3.7049,-0.8261 8.7086,-1.1211 13.6337,0.289l0.4154 -0.8029c-3.213,-3.2713 -9.5475,-2.2011 -12.2902,-1.772 -2.7426,0.429 -4.444,2.2412 -5.9645,2.0081 -3.4614,-0.5311 -8.849,-2.4606 -11.276,-2.4606 -2.4271,0 -2.0752,0.8089 -2.2248,0.8089 -0.999,0 -0.8884,-1.011 -1.4159,-1.011 -1.8924,0 -3.9526,1.011 -6.0679,1.011 -0.87,0 -1.0965,-0.2358 -1.8205,-0.4044 -0.6335,-3.6648 0.5396,-6.8761 5.2574,-5.4148 -1.9632,0.3502 -3.2775,0.4641 -3.2348,1.5811 0.6773,0.924 4.771,-0.0016 6.271,-0.0093 4.6618,-0.0239 8.0509,3.2491 12.4638,3.4385 3.2159,0.1383 0.1328,-0.9319 0.135,-1.6514 3.4289,-1.2804 8.3464,0.2955 11.4701,-1.1796 -1.3445,-1.1684 -5.4084,0.4407 -6.4726,-1.0112 1.3865,-0.7785 5.4036,-0.2021 7.0793,-0.2021 1.419,0 1.5031,0.0953 1.1677,1.3261 -0.2284,2.0845 4.4218,0.4847 5.2366,0.1849 -1.4639,2.4039 2.8485,3.4559 2.9306,2.0742 -4.4458,-3.3303 14.6346,0.0456 14.6346,-4.7985 -0.236,-4.9781 -7.1613,-7.1448 -7.9904,-8.8729 15.8631,-14.5689 16.7007,-23.3482 6.6892,-39.6232 11.0769,0.8084 14.5422,5.229 22.0324,13.1069 0.5771,-25.9166 -28.9787,-43.0736 -52.3868,-43.0736 -7.57,0 -19.4484,0.5626 -28.2365,5.5405 -8.7881,4.9779 -22.9277,12.8742 -38.8709,18.1641 -15.9432,5.2899 -38.294,12.7689 -59.663,16.3856 -10.1058,1.7095 -21.3847,0.257 -29.9774,-0.6643 -8.5927,-0.9214 -13.2715,-0.6094 -20.2145,0.4319 -7.3314,1.0993 -18.2028,6.184 -20.6509,13.5292 18.4548,2.0592 33.7294,9.3682 45.7119,13.7512 3.5895,2.403 13.3431,4.7144 17.9261,4.7144 9.5053,0 18.2021,-3.0967 27.5836,-3.0967 20.4305,0 38.7885,8.5689 56.4503,8.5689 4.8551,-0.903 5.0665,1.2603 8.8872,2.5539l-0.021 -10.5193 6.4879 0.0033zm42.346 -17.8125c1.9913,0 3.6062,1.6149 3.6062,3.6063 0,1.9913 -1.6149,3.6062 -3.6062,3.6062 -1.9914,0 -3.6063,-1.6149 -3.6063,-3.6062 0,-1.9914 1.6149,-3.6063 3.6063,-3.6063zm16.0177 -5.5526c1.9913,0 3.6062,1.6149 3.6062,3.6062 0,1.9913 -1.6149,3.6062 -3.6062,3.6062 -1.9914,0 -3.6062,-1.6149 -3.6062,-3.6062 0,-1.9913 1.6148,-3.6062 3.6062,-3.6062z"/>
   <path id="_96466904" class="fil1" d="M43.5608 87.6434l3.4155 -0.5176c0.2638,1.1445 0.7271,1.9686 1.3901,2.4764 0.6585,0.5039 1.5229,0.7318 2.5968,0.6755 1.1349,-0.0594 1.9804,-0.3444 2.5286,-0.8585 0.5525,-0.5102 0.812,-1.0867 0.7782,-1.7294 -0.0217,-0.4149 -0.162,-0.7583 -0.4212,-1.0343 -0.2554,-0.2803 -0.6916,-0.5103 -1.3088,-0.69 -0.4184,-0.125 -1.3753,-0.3278 -2.863,-0.6169 -1.916,-0.3686 -3.2723,-0.8767 -4.0688,-1.5202 -1.1241,-0.9037 -1.7224,-2.047 -1.7949,-3.43 -0.0467,-0.8908 0.1619,-1.7339 0.6257,-2.5372 0.464,-0.7993 1.1611,-1.4272 2.0876,-1.8837 0.9306,-0.4525 2.0629,-0.7158 3.4053,-0.7861 2.1965,-0.1152 3.8691,0.2785 5.0298,1.1803 1.1569,0.906 1.8057,2.1567 1.9468,3.7606l-3.5185 0.3393c-0.1976,-0.8911 -0.5568,-1.5208 -1.0735,-1.8852 -0.517,-0.3687 -1.2716,-0.5248 -2.2641,-0.4728 -1.0251,0.0538 -1.8196,0.3034 -2.375,0.7567 -0.3601,0.288 -0.5283,0.6598 -0.5046,1.1114 0.0217,0.4149 0.2152,0.7597 0.5804,1.0342 0.4629,0.3509 1.5653,0.6847 3.3031,0.9975 1.7378,0.3167 3.0288,0.6692 3.8731,1.0574 0.8445,0.392 1.5181,0.9482 2.0253,1.6762 0.5031,0.7282 0.7836,1.6435 0.8413,2.7458 0.0525,1.0007 -0.1749,1.9548 -0.6866,2.8544 -0.5114,0.9038 -1.2624,1.5958 -2.2571,2.0721 -0.9945,0.4804 -2.2524,0.7583 -3.7697,0.8379 -2.2086,0.1158 -3.9315,-0.3038 -5.1687,-1.2628 -1.2373,-0.9588 -2.0231,-2.4105 -2.3531,-4.351zm28.7811 -2.3018l-3.3552 0.1873c-0.0287,-0.6683 -0.2189,-1.1924 -0.5702,-1.572 -0.3515,-0.3797 -0.8366,-0.6075 -1.4592,-0.6839 -0.8329,-0.1023 -1.527,0.1038 -2.0903,0.6132 -0.5636,0.5137 -0.9279,1.4415 -1.0927,2.7837 -0.1832,1.4918 -0.062,2.5778 0.3638,3.2538 0.4259,0.6761 1.0592,1.0658 1.9041,1.1695 0.6348,0.0779 1.1701,-0.0368 1.6186,-0.3471 0.4484,-0.3102 0.8074,-0.8939 1.0803,-1.7468l3.2028 0.9554c-0.5239,1.4583 -1.3183,2.5138 -2.3744,3.1597 -1.0564,0.6501 -2.3928,0.8717 -4.0139,0.6726 -1.8396,-0.2258 -3.2361,-0.9842 -4.1851,-2.2785 -0.9532,-1.2948 -1.3015,-2.9708 -1.0494,-5.0245 0.2547,-2.074 1.0031,-3.6237 2.2407,-4.6454 1.2421,-1.0252 2.7968,-1.4212 4.6687,-1.1913 1.5322,0.188 2.7084,0.6689 3.533,1.4392 0.8207,0.7696 1.348,1.8561 1.5784,3.2551zm5.7982 -8.1958l-0.3366 6.4227c1.1481,-1.2042 2.4707,-1.7711 3.9717,-1.6925 0.7729,0.0405 1.4567,0.2232 2.0641,0.5405 0.6033,0.3171 1.052,0.7077 1.3418,1.1675 0.2898,0.4638 0.4797,0.9674 0.5653,1.5144 0.0897,0.5431 0.1026,1.3881 0.043,2.5228l-0.3889 7.4235 -3.3478 -0.1754 0.3505 -6.6873c0.0695,-1.326 0.0486,-2.1714 -0.0588,-2.5359 -0.1114,-0.3647 -0.3204,-0.6572 -0.6306,-0.8855 -0.3103,-0.2283 -0.7074,-0.3553 -1.1914,-0.3806 -0.5574,-0.0292 -1.0607,0.0791 -1.5101,0.3287 -0.4534,0.2455 -0.796,0.6354 -1.024,1.1699 -0.2319,0.5345 -0.3758,1.3346 -0.4315,2.3962l-0.3323 6.3414 -3.3477 -0.1754 0.9156 -17.4705 3.3477 0.1755zm14.6772 17.1511l-6.3562 -11.6733 3.1987 -0.6218 3.9157 7.6996 0.5585 -8.5692 3.1746 -0.6171 3.6599 7.7492 0.7943 -8.615 3.2427 -0.6303 -1.5765 13.2153 -3.1627 0.6148 -3.6982 -7.5842 -0.5521 8.4103 -3.1987 0.6217zm12.4499 -17.4789l-0.8034 -2.9982 3.238 -0.8676 0.8033 2.998 -3.2379 0.8678zm3.7245 13.9002l-3.2798 -12.24 3.2381 -0.8676 3.2797 12.2399 -3.238 0.8677zm2.5822 -13.5695l2.9566 -0.9039 0.5048 1.6516c0.6627,-1.6082 1.7282,-2.6367 3.1889,-3.0833 0.7752,-0.237 1.4978,-0.2834 2.1642,-0.1378 0.6702,0.1444 1.2855,0.4845 1.8492,1.0191 0.3322,-0.8085 0.7609,-1.4678 1.2787,-1.9753 0.5178,-0.5077 1.1272,-0.8686 1.8284,-1.083 0.8881,-0.2716 1.6997,-0.3194 2.426,-0.1454 0.725,0.1703 1.3477,0.5633 1.8648,1.1676 0.3804,0.4503 0.7454,1.2544 1.0992,2.4114l2.3686 7.7475 -3.2057 0.9801 -2.1174 -6.9257c-0.3679,-1.2036 -0.7141,-1.9455 -1.0433,-2.2282 -0.4353,-0.3652 -0.9613,-0.4556 -1.5768,-0.2675 -0.4518,0.1382 -0.8308,0.4031 -1.1436,0.8011 -0.31,0.393 -0.4717,0.8811 -0.485,1.4645 -0.0133,0.5833 0.1518,1.4442 0.5008,2.5855l1.7792 5.8196 -3.2058 0.9801 -2.0305 -6.6414c-0.3608,-1.1803 -0.6514,-1.922 -0.8692,-2.2302 -0.2177,-0.3083 -0.4743,-0.5067 -0.7632,-0.6015 -0.2927,-0.0937 -0.6421,-0.0805 -1.055,0.0457 -0.4947,0.1513 -0.8984,0.4194 -1.2095,0.8085 -0.3164,0.3863 -0.4828,0.8589 -0.5006,1.4138 -0.0178,0.5548 0.1501,1.4108 0.5063,2.5754l1.8005 5.8896 -3.2057 0.9801 -3.7049 -12.118zm20.5605 -6.023l2.9232 -1.0065 0.5623 1.633c0.606,-1.6304 1.635,-2.6955 3.0793,-3.1928 0.7664,-0.2638 1.4871,-0.3354 2.1581,-0.2132 0.6749,0.1208 1.3015,0.4394 1.8836,0.954 0.3036,-0.8196 0.7092,-1.4935 1.209,-2.0188 0.4998,-0.5255 1.0962,-0.9074 1.7894,-1.1461 0.8782,-0.3023 1.6876,-0.3786 2.4195,-0.23 0.7304,0.1448 1.3665,0.5159 1.9044,1.1019 0.3959,0.4367 0.7887,1.2276 1.1826,2.3714l2.6376 7.6601 -3.1695 1.0914 -2.3578 -6.8476c-0.4097,-1.19 -0.7816,-1.9193 -1.1204,-2.1903 -0.4479,-0.3498 -0.9767,-0.4219 -1.5851,-0.2123 -0.4468,0.1538 -0.8164,0.4318 -1.1151,0.8406 -0.2962,0.4034 -0.4406,0.8969 -0.4336,1.4803 0.0071,0.5835 0.2022,1.4382 0.5907,2.5667l1.9813 5.7537 -3.1697 1.0914 -2.261 -6.5664c-0.4018,-1.1669 -0.7181,-1.8981 -0.9465,-2.1985 -0.2284,-0.3004 -0.4917,-0.4897 -0.7837,-0.5744 -0.2958,-0.0835 -0.6446,-0.0582 -1.0528,0.0824 -0.4892,0.1685 -0.8832,0.4504 -1.1805,0.8502 -0.3028,0.3972 -0.4527,0.8752 -0.4509,1.4305 0.0015,0.555 0.1992,1.4045 0.5957,2.5561l2.005 5.8232 -3.1696 1.0913 -4.1255 -11.9813zm28.0698 3.6654l-9.4827 -9.8355 3.2629 -1.3183 4.6362 5.103 1.4508 1.7422c-0.0361,-0.5784 -0.0624,-0.9588 -0.0865,-1.1381 -0.0285,-0.375 -0.0533,-0.7516 -0.0689,-1.1275l-0.1874 -6.9004 3.1988 -1.2924 0.0752 13.6365 -2.7984 1.1305zm14.0277 -10.8903l3.233 -1.021c0.1719,1.2884 -0.0071,2.4264 -0.5442,3.4179 -0.5317,0.9931 -1.4218,1.8032 -2.6631,2.4357 -1.9633,1.0003 -3.7404,1.1014 -5.3387,0.2974 -1.2673,-0.648 -2.3032,-1.7567 -3.1002,-3.321 -0.9542,-1.8728 -1.2113,-3.5886 -0.7713,-5.1475 0.4362,-1.5573 1.4038,-2.7176 2.8991,-3.4796 1.6804,-0.8561 3.2879,-0.9759 4.8265,-0.3609 1.5348,0.6168 2.8648,2.0787 3.9917,4.389l-7.4871 3.8149c0.473,0.8744 1.0639,1.442 1.7744,1.6971 0.7124,0.2588 1.4152,0.2115 2.1011,-0.138 0.4683,-0.2386 0.7954,-0.5654 0.9853,-0.9821 0.1881,-0.4204 0.2223,-0.9544 0.0935,-1.6019zm-1.3679 -3.1065c-0.4638,-0.8563 -1.0199,-1.4004 -1.6737,-1.6341 -0.6539,-0.2336 -1.2876,-0.1942 -1.8973,0.1165 -0.6533,0.3328 -1.0685,0.846 -1.2507,1.5378 -0.1842,0.6882 -0.0656,1.4414 0.3578,2.2544l4.4639 -2.2746zm11.5668 2.3099l-2.9321 1.6252 -6.1432 -11.0829 2.7217 -1.5088 0.8728 1.5747c0.054,-1.0033 0.2018,-1.7279 0.4419,-2.1684 0.2439,-0.4424 0.5971,-0.7966 1.0709,-1.0592 0.6697,-0.3713 1.4137,-0.5415 2.2389,-0.5146l0.5075 3.0579c-0.6674,-0.0446 -1.2158,0.0498 -1.6398,0.2848 -0.4133,0.2291 -0.6976,0.5311 -0.8561,0.917 -0.1643,0.3844 -0.1581,0.9166 0.0059,1.5987 0.1639,0.6823 0.7692,1.9674 1.8139,3.8521l1.8977 3.4235zm9.1451 -9.3736l3.2819 -0.8504c0.1044,1.2957 -0.1339,2.4227 -0.7223,3.3848 -0.5829,0.964 -1.5141,1.7264 -2.7868,2.293 -2.013,0.8962 -3.793,0.904 -5.347,0.0176 -1.2317,-0.7134 -2.2081,-1.8749 -2.9222,-3.4787 -0.8548,-1.9201 -1.0218,-3.6471 -0.5009,-5.1809 0.5172,-1.5323 1.5442,-2.6404 3.0773,-3.3231 1.723,-0.767 3.3346,-0.8023 4.8388,-0.1078 1.5005,0.6964 2.7521,2.2258 3.7564,4.5919l-7.6764 3.4178c0.4265,0.898 0.987,1.4958 1.6831,1.7877 0.698,0.2957 1.4022,0.2852 2.1055,-0.0278 0.4801,-0.2138 0.824,-0.523 1.0353,-0.9293 0.2099,-0.41 0.2721,-0.9414 0.1773,-1.5948zm-1.2035 -3.1738c-0.4182,-0.8794 -0.9451,-1.4518 -1.5858,-1.7194 -0.6409,-0.2675 -1.2757,-0.2613 -1.9009,0.017 -0.6698,0.2982 -1.1112,0.789 -1.3295,1.4703 -0.22,0.6776 -0.1409,1.436 0.2394,2.2698l4.5768 -2.0377zm4.1531 -8.4758l-0.751 -3.0116 3.2528 -0.811 0.7509 3.0117 -3.2527 0.8109zm3.4813 13.9632l-3.0656 -12.2953 3.2528 -0.8111 3.0655 12.2954 -3.2527 0.811zm17.0968 -2.1993l-3.3395 0.2921 -0.5638 -6.4437c-0.1192,-1.3633 -0.2693,-2.2374 -0.4464,-2.6267 -0.1769,-0.3854 -0.4395,-0.6772 -0.7796,-0.8723 -0.3398,-0.191 -0.7352,-0.2709 -1.1854,-0.2315 -0.5804,0.0508 -1.0859,0.2545 -1.5169,0.6111 -0.4303,0.3606 -0.7103,0.8063 -0.8348,1.3446 -0.1248,0.5384 -0.1254,1.5116 -0.0019,2.9237l0.5003 5.7172 -3.3396 0.2922 -1.1044 -12.6234 3.1001 -0.2713 0.1623 1.8545c0.9786,-1.525 2.3038,-2.3606 3.9757,-2.5069 0.7345,-0.0642 1.4238,0.0105 2.0554,0.2209 0.6322,0.2146 1.1242,0.5108 1.4729,0.8974 0.3486,0.3866 0.6086,0.8341 0.7761,1.3469 0.1716,0.5123 0.2978,1.2537 0.3829,2.2275l0.6866 7.8477z"/>
   <path id="_96467264" class="fil1" d="M118.777 143.854l6.7065 0 0 9.6024 7.3334 0 0 -9.6024 6.7369 0 0 27.4399 -6.7369 0 0 -11.0974 -7.3334 0 0 11.0974 -6.7065 0 0 -27.4399zm30.3237 13.9979l-5.7564 -0.7667c0.2172,-1.2714 0.5305,-2.2743 0.94,-3.0028 0.4093,-0.7282 0.9956,-1.3607 1.7688,-1.8975 0.5509,-0.3896 1.3141,-0.6898 2.2794,-0.9008 0.9653,-0.2107 2.0115,-0.3194 3.1385,-0.3194 1.8043,0 3.2598,0.1279 4.3514,0.3833 1.0967,0.2556 2.0115,0.7923 2.7393,1.6037 0.5155,0.5622 0.9198,1.3544 1.2181,2.383 0.293,1.035 0.4397,2.0124 0.4397,2.9516l0 8.7782c0,0.9328 0.0504,1.6675 0.1415,2.1978 0.096,0.5303 0.2981,1.2074 0.6165,2.0316l-5.6554 0c-0.2274,-0.5111 -0.374,-0.9008 -0.4447,-1.1692 -0.0708,-0.2683 -0.1364,-0.6899 -0.2072,-1.2649 -0.7885,0.9647 -1.577,1.6483 -2.3553,2.0572 -1.0662,0.5494 -2.3045,0.8242 -3.7145,0.8242 -1.8751,0 -3.3002,-0.5495 -4.2757,-1.6484 -0.9703,-1.0925 -1.4556,-2.4468 -1.4556,-4.0568 0,-1.5142 0.3488,-2.7537 1.0513,-3.7247 0.7025,-0.9775 1.9912,-1.6994 3.8764,-2.1723 2.2642,-0.575 3.7298,-0.9775 4.402,-1.2075 0.6672,-0.23 1.3798,-0.5366 2.1277,-0.9071 0,-0.9392 -0.1516,-1.5908 -0.4549,-1.9677 -0.3083,-0.3706 -0.8439,-0.5623 -1.6172,-0.5623 -0.9855,0 -1.7234,0.2044 -2.2188,0.6005 -0.384,0.3131 -0.6974,0.9008 -0.9349,1.757zm5.2258 4.0058c-0.8288,0.3769 -1.6932,0.7091 -2.5877,0.9966 -1.223,0.4089 -2.0014,0.8178 -2.3248,1.2138 -0.3386,0.4154 -0.5053,0.8817 -0.5053,1.4056 0,0.6006 0.1667,1.0861 0.4952,1.4694 0.3335,0.377 0.8188,0.5687 1.4607,0.5687 0.672,0 1.2937,-0.2045 1.875,-0.6133 0.5761,-0.4154 0.9854,-0.92 1.2281,-1.5079 0.2425,-0.5941 0.3588,-1.3671 0.3588,-2.3127l0 -1.2202zm9.5671 -10.4393l5.6403 0 0 3.2519c0.5458,-1.4056 1.1067,-2.3767 1.6828,-2.9069 0.5763,-0.5304 1.2889,-0.7987 2.1379,-0.7987 0.8895,0 1.86,0.3514 2.9162,1.0479l-1.865 5.4304c-0.7075,-0.3769 -1.2736,-0.5623 -1.688,-0.5623 -0.7883,0 -1.3999,0.4154 -1.8346,1.2331 -0.6217,1.1627 -0.9349,3.335 -0.9349,6.5166l0 6.6635 -6.0547 0 0 -19.8755zm31.3447 11.8256l-12.0791 0c0.1062,1.2266 0.369,2.1339 0.7835,2.7345 0.5811,0.8625 1.3444,1.2904 2.2794,1.2904 0.5912,0 1.1573,-0.1852 1.6879,-0.5621 0.3286,-0.2364 0.6772,-0.6517 1.0513,-1.2522l5.9384 0.6899c-0.9098,1.9998 -2.0015,3.4308 -3.2851,4.2998 -1.2836,0.8624 -3.1234,1.2969 -5.524,1.2969 -2.0821,0 -3.7198,-0.3706 -4.9175,-1.1117 -1.1927,-0.7411 -2.1833,-1.9231 -2.9667,-3.5394 -0.7834,-1.6164 -1.1775,-3.5139 -1.1775,-5.6988 0,-3.105 0.7883,-5.6221 2.3601,-7.5389 1.5768,-1.9229 3.7501,-2.8877 6.5247,-2.8877 2.2491,0 4.028,0.4344 5.3269,1.2969 1.304,0.8562 2.2996,2.1083 2.9767,3.7376 0.6824,1.6354 1.021,3.7629 1.021,6.3823l0 0.8625zm-6.1254 -3.648c-0.1214,-1.4758 -0.4347,-2.5299 -0.9401,-3.1624 -0.5104,-0.6389 -1.1775,-0.9583 -2.0064,-0.9583 -0.9602,0 -1.7234,0.4854 -2.2995,1.4439 -0.364,0.6004 -0.5964,1.4885 -0.6924,2.6768l5.9384 0zm8.895 -8.1776l5.6149 0 0 3.2327c0.8389,-1.3225 1.688,-2.2616 2.5471,-2.8302 0.8592,-0.5687 1.9054,-0.8562 3.1386,-0.8562 1.6678,0 2.9717,0.6325 3.9169,1.8848 0.94,1.2522 1.4099,3.1879 1.4099,5.8074l0 12.637 -6.0546 0 0 -10.9312c0,-1.2458 -0.1819,-2.1275 -0.5459,-2.645 -0.3688,-0.5239 -0.8793,-0.7795 -1.5413,-0.7795 -0.7278,0 -1.3241,0.3514 -1.774,1.0479 -0.4549,0.6963 -0.6823,1.9549 -0.6823,3.7629l0 9.5449 -6.0293 0 0 -19.8755z"/>
  </g>
 </g>
</svg>
