<?xml version="1.0" standalone="no"?>
<!DOCTYPE svg PUBLIC "-//W3C//DTD SVG 20010904//EN"
 "http://www.w3.org/TR/2001/REC-SVG-20010904/DTD/svg10.dtd">
<svg version="1.0" xmlns="http://www.w3.org/2000/svg"
 width="1123.000000pt" height="1123.000000pt" viewBox="0 0 1123.000000 1123.000000"
 preserveAspectRatio="xMidYMid meet">
<metadata>
Created by potrace 1.14, written by Peter Selinger 2001-2017
</metadata>
<g transform="translate(0.000000,1123.000000) scale(0.100000,-0.100000)"
fill="#000000" stroke="none">
<path d="M7450 8126 c-49 -13 -49 -13 -29 -89 9 -34 12 -37 37 -31 15 3 39 8
55 11 37 7 41 16 27 73 -13 55 -16 56 -90 36z"/>
<path d="M7979 8025 c-4 -3 -17 -8 -29 -10 -13 -3 -26 -8 -29 -12 -21 -27 -72
-66 -71 -53 7 51 2 57 -45 50 -25 -4 -48 -8 -50 -8 -3 -1 -10 -2 -15 -2 -7 0
-9 -15 -6 -37 5 -35 12 -114 22 -238 2 -27 6 -63 8 -80 2 -16 4 -49 5 -73 l1
-43 63 3 62 3 -1 45 c-1 25 -5 88 -9 140 -9 116 -9 126 6 162 21 52 94 71 136
36 18 -14 31 -70 38 -158 11 -149 16 -193 21 -201 3 -5 20 -7 37 -3 18 3 44 6
59 6 29 1 29 1 14 153 -4 33 -8 83 -11 110 -11 126 -29 170 -76 195 -22 12
-122 24 -130 15z"/>
<path d="M7559 7966 c-2 -3 -16 -7 -29 -9 -55 -11 -80 -20 -80 -29 0 -5 14
-64 31 -131 17 -67 32 -129 35 -137 2 -8 13 -54 24 -102 13 -52 26 -85 33 -84
25 5 83 18 99 22 13 4 16 10 9 22 -5 9 -9 20 -9 25 0 4 -4 22 -8 40 -4 17 -8
37 -9 42 0 6 -6 28 -12 50 -7 22 -14 51 -17 65 -3 14 -9 40 -15 58 -5 17 -7
32 -4 32 3 0 0 7 -7 15 -7 8 -10 15 -7 15 3 0 1 15 -4 33 -6 17 -12 40 -14 51
-5 21 -10 28 -16 22z"/>
<path d="M7105 7832 c-45 -17 -95 -63 -118 -109 -26 -49 -17 -156 17 -226 37
-75 102 -133 160 -141 135 -21 269 70 278 189 3 43 2 43 -55 32 -58 -12 -64
-17 -71 -56 -6 -36 -19 -49 -69 -65 -26 -8 -80 17 -100 48 -17 26 -17 26 5 35
13 5 53 23 90 40 115 52 143 64 150 63 3 -1 11 5 18 13 19 23 -61 137 -119
168 -54 29 -126 33 -186 9z m141 -116 c25 -28 31 -46 15 -46 -5 0 -42 -15 -83
-34 -80 -37 -88 -35 -88 25 0 53 37 87 91 85 32 -2 47 -9 65 -30z"/>
<path d="M6833 7684 c-34 -15 -52 -40 -63 -89 l-7 -30 -13 27 c-13 28 -30 28
-62 0 -10 -8 -18 -12 -18 -9 0 4 -9 -1 -20 -10 -17 -15 -18 -20 -6 -38 7 -11
28 -47 46 -80 18 -33 44 -80 58 -105 14 -25 38 -69 53 -98 16 -30 38 -66 49
-82 l21 -29 33 22 c18 12 41 27 51 32 16 10 15 16 -18 75 -89 158 -114 223
-103 265 7 26 45 48 80 47 14 -1 17 4 12 21 -3 12 -9 39 -12 60 -7 42 -24 46
-81 21z"/>
<path d="M6400 7451 c-65 -20 -122 -66 -150 -121 -34 -65 -12 -187 49 -270 64
-88 154 -119 249 -86 95 34 148 92 161 178 7 38 5 51 -5 55 -8 3 -20 1 -27 -5
-6 -6 -15 -10 -20 -10 -4 0 -21 -3 -37 -7 -24 -5 -30 -12 -30 -31 0 -52 -49
-96 -98 -88 -29 5 -70 32 -82 54 -7 13 0 21 38 40 26 13 49 24 52 25 3 0 39
19 80 40 41 21 78 38 82 37 3 -1 8 5 11 12 8 21 -23 75 -70 121 -60 57 -132
77 -203 56z m108 -125 c14 -13 22 -29 18 -34 -10 -17 -156 -85 -164 -77 -4 4
-7 26 -7 49 0 42 22 77 55 88 29 10 74 -2 98 -26z"/>
<path d="M8167 7374 c-1 -1 -45 -5 -97 -8 -136 -10 -202 -17 -275 -32 -11 -3
-42 -9 -70 -15 -112 -23 -114 -24 -135 -32 -8 -3 -33 -11 -55 -17 -59 -18
-209 -82 -213 -92 -2 -4 -11 -8 -20 -8 -8 0 -23 -6 -31 -14 -9 -7 -50 -31 -91
-52 -41 -21 -77 -41 -80 -44 -17 -17 -494 -262 -620 -318 -160 -72 -209 -93
-220 -97 -3 -1 -16 -6 -30 -12 -92 -40 -230 -90 -230 -85 0 4 -4 3 -8 -3 -7
-9 -58 -31 -92 -40 -8 -2 -62 -20 -120 -40 -58 -20 -112 -38 -120 -40 -8 -2
-64 -20 -125 -40 -60 -21 -114 -38 -120 -40 -5 -1 -17 -5 -25 -8 -24 -10 -395
-126 -422 -133 -25 -6 -26 -6 -278 -79 -124 -36 -232 -67 -240 -69 -8 -1 -35
-8 -60 -15 -25 -7 -52 -14 -60 -16 -8 -2 -44 -11 -80 -20 -36 -9 -72 -18 -80
-20 -8 -2 -85 -20 -170 -39 -85 -20 -171 -38 -190 -41 -39 -5 -73 -12 -98 -19
-9 -3 -37 -8 -62 -11 -25 -4 -64 -10 -86 -15 -110 -25 -494 -34 -694 -17 -185
16 -360 33 -430 42 -177 23 -521 24 -650 1 -14 -3 -43 -7 -65 -10 -42 -5 -113
-17 -130 -21 -46 -10 -81 -21 -152 -46 -235 -85 -425 -219 -512 -363 -39 -66
-43 -88 -16 -91 27 -3 116 -16 137 -20 9 -2 38 -7 65 -11 26 -3 57 -9 68 -11
11 -3 36 -8 55 -13 19 -4 58 -13 85 -19 28 -6 91 -22 140 -36 50 -14 97 -27
105 -28 28 -5 194 -58 320 -103 265 -96 681 -258 766 -299 72 -35 231 -91 287
-100 17 -3 33 -7 36 -9 3 -2 22 -7 41 -10 19 -4 67 -13 105 -20 67 -14 359
-16 410 -3 11 3 45 8 76 11 54 6 72 9 129 21 29 5 69 12 125 20 22 3 65 10 95
15 86 15 162 24 202 24 21 1 38 3 38 6 0 3 69 4 153 4 83 -1 152 -2 152 -3 0
-1 29 -4 65 -6 79 -4 216 -20 230 -25 3 -1 9 -2 13 -1 7 1 50 -6 202 -34 17
-3 50 -10 75 -15 25 -5 56 -12 70 -14 57 -10 127 -26 158 -35 18 -5 35 -10 37
-10 3 0 31 -5 63 -12 31 -6 64 -13 72 -14 8 -2 15 -4 15 -5 0 -1 9 -3 20 -5
31 -5 77 -15 115 -25 19 -5 46 -11 60 -14 14 -2 72 -14 130 -26 192 -39 298
-56 410 -66 19 -1 35 -3 35 -4 0 -1 77 -3 170 -4 182 -2 168 2 285 -65 30 -17
61 -31 68 -31 10 0 12 43 11 191 -1 104 2 193 5 196 3 3 58 6 122 6 100 0 118
-3 134 -19 19 -19 18 -19 -83 -17 -158 3 -142 24 -141 -191 1 -101 5 -189 8
-195 4 -6 15 -11 24 -11 15 0 17 18 17 187 l0 188 215 0 c118 1 221 -1 228 -3
9 -3 12 -62 12 -247 l0 -243 -39 9 c-21 5 -66 10 -99 12 -51 4 -64 1 -79 -15
-19 -22 -19 -22 52 -60 96 -50 185 -59 285 -27 36 11 74 22 85 25 11 2 30 6
43 8 12 3 22 2 22 -2 0 -4 17 -7 38 -8 40 0 151 -12 192 -19 14 -3 51 -7 82
-10 59 -5 206 -33 311 -58 56 -14 59 -14 91 8 62 42 180 66 326 65 71 0 165
-6 165 -10 0 -1 9 -3 20 -4 11 -2 39 -6 61 -10 80 -14 54 39 -38 77 -70 29
-149 36 -273 23 -123 -13 -135 -15 -193 -42 -122 -56 -112 -56 -283 -12 -201
51 -185 48 -256 55 -50 5 -68 2 -89 -11 -25 -17 -27 -17 -49 4 -21 20 -47 21
-105 5 -69 -19 -177 -27 -202 -14 -14 8 -17 21 -15 77 3 74 24 118 64 133 33
12 113 11 113 -1 0 -6 -3 -9 -7 -8 -18 4 -73 -14 -84 -29 -24 -28 11 -41 93
-34 93 7 204 7 243 -2 17 -4 64 -21 105 -38 158 -65 256 -90 297 -75 14 6 13
9 -6 30 -27 28 -16 39 39 42 19 1 35 3 35 4 0 1 65 3 145 4 80 2 156 7 170 13
l25 10 -35 10 c-19 5 -69 8 -111 7 -79 -3 -117 8 -89 25 11 8 180 9 282 2 13
-1 17 -9 16 -36 -1 -19 2 -38 6 -42 13 -13 100 -6 163 13 19 5 21 3 18 -17 -5
-29 12 -53 45 -64 38 -13 46 -14 61 -4 12 7 12 12 1 30 -17 27 -6 39 44 44 21
2 39 4 39 5 0 0 52 3 115 5 208 9 335 37 358 82 15 28 4 89 -24 136 -27 43
-96 105 -182 160 -99 66 -100 53 19 175 134 135 138 140 211 237 57 77 142
233 154 285 53 224 30 389 -87 636 -18 38 -41 81 -51 97 -11 15 -16 27 -12 27
4 0 0 8 -8 18 -8 9 -25 34 -37 56 l-22 39 58 -7 c49 -6 132 -22 207 -41 44
-11 165 -75 229 -121 37 -27 126 -108 196 -180 134 -136 154 -154 147 -132 -3
7 -7 59 -10 115 -3 55 -10 112 -15 125 -5 12 -9 28 -9 33 -2 20 -24 110 -31
130 -5 11 -13 31 -18 45 -26 65 -79 175 -85 178 -5 2 -8 9 -8 15 0 14 -95 154
-134 197 -14 17 -26 32 -26 35 0 11 -180 184 -246 237 -87 70 -171 128 -184
128 -5 0 -10 4 -10 8 0 5 -19 19 -42 32 -56 31 -287 150 -291 149 -1 0 -15 5
-32 11 -121 47 -171 64 -259 89 -119 34 -281 67 -386 77 -63 6 -388 12 -393 8z
m838 -231 c39 -8 82 -16 96 -18 14 -3 44 -11 67 -19 23 -8 42 -12 42 -9 0 4 5
2 12 -5 7 -7 18 -12 26 -12 28 0 187 -82 204 -105 18 -23 17 -24 -6 -19 -12 2
-54 19 -92 38 -161 81 -411 144 -581 149 -18 0 -30 4 -26 9 7 13 173 7 258 -9z
m-130 -158 c83 -11 108 -15 115 -20 4 -2 23 -6 42 -9 19 -2 68 -14 109 -27 41
-12 76 -23 79 -23 45 -7 365 -160 401 -192 8 -8 19 -14 23 -14 4 0 12 -4 19
-10 43 -35 109 -80 117 -80 6 0 10 -4 10 -8 0 -4 19 -22 42 -40 105 -81 252
-241 236 -257 -2 -2 -35 26 -73 61 -106 98 -115 106 -180 154 -33 25 -68 52
-77 60 -49 44 -335 208 -416 239 -15 5 -54 22 -87 35 -33 14 -67 26 -75 26 -9
0 -20 4 -25 8 -10 8 -74 30 -105 36 -26 5 -74 17 -90 23 -8 3 -24 7 -35 8 -11
1 -36 6 -55 10 -46 11 -56 13 -115 21 -27 3 -52 8 -55 11 -5 5 132 -3 195 -12z
m-499 -337 c27 -24 56 -52 65 -63 10 -11 29 -33 43 -50 32 -36 227 -290 241
-313 6 -9 13 -19 16 -22 3 -3 25 -32 50 -65 24 -33 46 -62 49 -65 3 -3 18 -23
35 -45 16 -22 33 -44 37 -50 11 -14 58 -75 88 -115 14 -19 35 -46 48 -61 12
-15 22 -32 22 -38 0 -6 4 -11 9 -11 5 0 13 -10 17 -22 25 -76 -2 -151 -68
-188 -34 -19 -50 -21 -106 -17 -37 3 -80 8 -97 11 -16 3 -55 8 -85 11 -128 14
-190 26 -190 35 0 4 -11 18 -25 31 -13 13 -25 28 -25 32 0 4 -9 18 -21 30 -11
12 -41 55 -66 95 -61 98 -61 98 112 76 17 -2 41 -6 55 -9 28 -5 116 -15 170
-19 47 -3 100 11 100 28 0 7 -8 23 -17 34 -10 12 -34 43 -53 69 -19 27 -41 54
-48 61 -7 8 -25 30 -40 50 -15 21 -33 43 -40 50 -7 8 -25 30 -40 50 -15 21
-29 39 -32 42 -3 3 -39 50 -80 105 -41 55 -77 102 -80 105 -17 17 -92 134
-118 185 -22 45 -28 65 -21 78 16 27 43 20 95 -25z m-1171 -59 c16 -6 13 -8
-15 -9 -19 -1 -44 -3 -55 -5 -11 -2 -40 -7 -65 -10 -25 -3 -63 -11 -85 -17
-22 -6 -44 -11 -50 -13 -5 -1 -17 -5 -25 -8 -8 -4 -42 -16 -75 -27 -53 -19
-442 -207 -455 -220 -3 -3 -50 -26 -105 -52 -153 -71 -369 -134 -397 -117 -10
7 -9 9 5 10 9 1 20 2 25 3 16 3 110 39 160 62 29 13 57 24 61 24 5 0 11 3 13
8 2 4 21 16 43 27 22 11 94 51 160 89 156 89 353 189 398 201 4 2 9 4 12 5 3
1 8 3 13 4 42 12 100 28 112 33 8 3 28 7 44 9 16 3 31 6 33 7 7 7 230 4 248
-4z m2035 -91 c-99 -24 -97 -24 -155 -43 -27 -9 -100 -41 -161 -71 -67 -32
-119 -52 -128 -48 -14 5 -11 11 16 31 60 45 212 115 278 128 8 2 15 4 15 6 0
7 159 25 185 20 18 -4 5 -10 -50 -23z m-3210 -83 c0 -6 -58 -36 -66 -34 -4 0
-10 -4 -13 -9 -8 -14 -332 -165 -376 -177 -5 -1 -28 -10 -50 -20 -22 -9 -44
-18 -50 -20 -5 -1 -23 -8 -40 -14 -124 -52 -587 -208 -700 -237 -16 -4 -34 -8
-40 -10 -135 -39 -235 -66 -255 -70 -14 -3 -59 -14 -100 -24 -41 -11 -87 -21
-103 -24 -15 -3 -35 -7 -45 -10 -9 -3 -28 -7 -42 -10 -14 -3 -72 -14 -130 -26
-58 -11 -123 -23 -145 -25 -22 -3 -47 -8 -55 -10 -8 -3 -35 -7 -60 -10 -25 -3
-55 -7 -68 -10 -13 -2 -51 -7 -85 -10 -34 -3 -73 -8 -87 -10 -77 -11 -187 -18
-465 -26 -41 -2 -249 12 -253 16 -3 3 8 5 24 6 103 3 295 19 409 33 22 3 63 8
90 11 28 4 61 8 75 11 14 2 45 6 70 10 25 3 52 7 60 9 8 2 31 7 50 10 19 3 73
13 120 21 47 9 94 18 105 20 26 5 257 54 270 58 6 1 37 8 70 15 33 7 101 24
150 38 50 14 106 28 125 33 38 9 277 75 325 90 101 32 266 81 270 80 3 0 21 6
40 14 19 8 35 13 35 10 0 -2 14 2 30 11 17 9 30 13 30 10 0 -3 9 -1 21 5 11 6
28 13 37 15 9 2 95 29 191 60 96 32 179 58 185 60 6 1 18 5 26 8 23 9 113 38
130 42 8 2 56 18 105 35 50 17 101 34 114 36 14 3 32 9 40 14 18 10 31 13 31
5z m1885 -128 c42 -47 65 -76 65 -83 0 -4 43 -64 93 -129 4 -5 66 -93 137
-195 72 -102 137 -193 145 -203 8 -9 15 -21 15 -25 1 -4 14 -23 30 -42 17 -19
30 -40 30 -47 0 -7 4 -13 8 -13 10 0 62 -77 62 -91 0 -14 -31 -61 -55 -83 -54
-49 -84 -56 -205 -43 -91 10 -148 17 -195 22 -22 3 -67 7 -100 10 -110 10
-112 11 -165 90 -28 41 -50 78 -50 84 0 5 -3 11 -7 13 -5 2 -17 19 -27 38 -11
19 -33 59 -49 88 l-29 53 68 -6 c38 -4 80 -8 93 -10 14 -3 54 -7 90 -10 36 -4
73 -8 81 -10 13 -4 42 -7 160 -20 14 -1 31 -4 38 -6 8 -2 19 3 25 13 8 13 3
32 -27 92 -21 42 -42 76 -47 76 -5 0 -9 5 -9 11 0 6 -18 38 -40 70 -22 32 -40
63 -40 68 0 5 -4 11 -8 13 -5 2 -37 46 -73 98 -35 52 -66 97 -69 100 -24 24
-40 97 -24 113 13 13 51 -4 79 -36z m-2230 -432 c92 -19 109 -23 113 -25 1 -2
7 -4 12 -5 6 -1 13 -4 18 -5 4 -1 10 -2 15 -1 4 0 7 -3 7 -9 0 -6 3 -9 8 -8
10 3 92 -30 92 -38 0 -3 -4 -3 -8 0 -5 3 -19 7 -33 10 -13 3 -62 15 -108 25
-115 27 -358 23 -531 -8 -36 -7 -76 -14 -90 -16 -14 -1 -88 -17 -165 -34 -77
-18 -151 -34 -164 -37 -13 -3 -51 -12 -85 -20 -73 -18 -86 -21 -151 -34 -57
-12 -74 -15 -133 -30 -23 -5 -58 -13 -78 -16 -20 -3 -46 -8 -58 -10 -20 -5
-48 -10 -103 -18 -16 -3 -44 -7 -63 -10 -64 -11 -237 -26 -347 -30 -116 -4
-99 7 30 19 34 3 69 8 77 10 8 2 31 7 50 10 19 3 76 15 125 26 50 11 100 22
112 25 12 2 34 9 48 14 14 5 25 8 25 5 0 -2 18 2 40 10 22 8 40 12 40 10 0 -2
25 5 55 15 30 10 55 17 55 14 0 -3 6 -2 13 3 6 4 19 9 29 10 9 1 65 16 125 32
97 26 213 55 268 67 11 2 56 11 100 20 104 22 147 28 259 39 27 3 51 6 52 8
11 10 280 -3 349 -18z m1796 -132 c13 -16 53 -71 88 -123 36 -52 69 -96 73
-98 4 -2 8 -8 8 -13 0 -5 22 -43 50 -84 27 -41 46 -75 43 -75 -3 0 1 -8 9 -17
8 -10 40 -66 71 -124 l55 -106 -81 -49 c-115 -70 -379 -207 -505 -263 l-53
-23 -41 27 c-23 15 -37 30 -31 36 4 4 76 43 158 85 143 73 264 141 275 154 3
3 22 19 43 35 51 38 63 62 43 84 -9 10 -16 21 -16 25 0 3 -22 40 -50 82 -27
41 -50 78 -50 80 0 3 -12 24 -27 47 -16 23 -33 51 -40 62 -6 11 -32 53 -58 93
-37 59 -46 82 -46 121 -1 27 2 54 5 60 13 20 52 12 77 -16z m-6268 -105 c-63
-54 -143 -141 -143 -155 0 -7 12 -13 28 -14 15 0 36 -2 47 -5 11 -2 34 -6 50
-8 17 -3 30 -5 30 -6 0 -1 16 -4 35 -6 19 -3 50 -9 69 -14 19 -5 38 -7 43 -4
4 3 8 1 8 -3 0 -5 8 -9 18 -9 31 -2 84 -14 104 -25 11 -6 22 -8 25 -5 3 3 22
-1 42 -9 20 -7 83 -28 141 -46 58 -18 112 -36 120 -40 22 -11 134 -54 142 -54
3 0 10 -3 14 -7 4 -5 16 -8 26 -8 10 0 18 -4 18 -10 0 -5 5 -10 10 -10 6 0 32
-10 58 -21 121 -55 256 -114 262 -115 3 0 19 -6 35 -13 61 -26 162 -63 235
-87 41 -14 82 -27 90 -30 8 -3 17 -6 20 -6 3 0 15 -4 28 -9 13 -5 85 -25 160
-45 141 -37 152 -39 212 -50 19 -4 44 -8 55 -11 11 -2 35 -6 54 -9 18 -3 43
-7 55 -10 11 -2 55 -7 96 -10 41 -3 84 -7 95 -9 78 -12 105 -37 33 -29 -24 2
-70 6 -103 9 -116 11 -211 24 -236 31 -9 3 -32 7 -50 9 -19 3 -83 17 -144 31
-60 14 -119 27 -130 29 -11 2 -60 15 -110 30 -49 14 -97 28 -105 30 -40 10
-256 88 -265 96 -5 5 -15 9 -22 9 -7 0 -50 18 -97 40 -46 22 -89 40 -95 40 -6
0 -11 4 -11 10 0 5 -3 9 -7 8 -5 0 -38 13 -76 31 -58 27 -362 132 -422 146
-11 3 -42 11 -70 19 -72 22 -167 47 -188 51 -9 2 -21 6 -26 10 -5 3 -22 7 -38
10 -15 2 -68 13 -118 25 -49 11 -102 23 -117 25 -16 3 -42 7 -60 11 -40 6 -47
12 -28 24 8 6 11 10 5 10 -17 0 79 91 149 141 79 56 105 65 49 17z m8115 -2
c41 -21 76 -91 66 -133 -9 -40 -43 -93 -59 -93 -7 0 -15 -5 -17 -12 -3 -7 -25
-11 -55 -11 -63 1 -118 37 -129 86 -8 32 -8 42 -6 83 2 22 45 75 75 91 27 14
87 9 125 -11z m-4401 -112 c-7 -7 -237 -72 -237 -67 0 3 -7 0 -15 -7 -8 -7
-15 -10 -15 -7 0 3 -21 -2 -47 -10 -27 -8 -59 -17 -73 -19 -14 -3 -52 -12 -85
-21 -33 -8 -67 -16 -75 -18 -8 -2 -35 -8 -60 -14 -25 -7 -58 -14 -73 -16 -16
-2 -70 -13 -120 -24 -51 -11 -112 -22 -137 -26 -25 -3 -52 -8 -60 -10 -16 -4
-88 -14 -160 -21 -25 -3 -58 -7 -75 -10 -85 -12 -389 -18 -500 -10 -73 6 -170
20 -203 30 -9 3 -28 7 -42 10 -42 7 -184 57 -195 68 -7 7 -3 8 13 3 23 -7 32
-8 147 -21 145 -16 684 -9 830 11 17 3 55 7 85 10 30 3 71 7 90 10 19 3 54 7
77 10 47 6 88 11 183 26 36 6 79 12 95 15 35 4 82 12 110 18 11 2 42 7 68 10
26 4 71 11 100 17 29 5 68 12 87 15 45 8 65 12 65 14 0 1 11 3 25 4 45 5 111
17 130 24 21 8 74 12 67 6z m4733 -90 c-11 -32 -23 -66 -27 -74 -3 -8 -7 -17
-7 -20 -4 -18 -75 -145 -111 -200 -71 -107 -97 -141 -155 -198 -92 -92 -144
-115 -67 -31 109 120 266 356 346 522 18 37 35 66 37 64 2 -2 -5 -30 -16 -63z
m-933 -10 c53 -34 76 -119 47 -176 -39 -75 -143 -95 -207 -39 -41 36 -57 83
-44 131 23 90 128 133 204 84z m-3972 -439 c44 -4 100 -9 125 -11 25 -1 45 -3
45 -4 0 -2 25 -7 72 -14 108 -16 245 -44 413 -86 109 -26 99 -24 210 -54 52
-15 102 -28 110 -31 45 -11 131 -35 173 -48 26 -8 47 -13 47 -11 0 3 8 0 18
-5 11 -6 30 -12 43 -15 13 -3 62 -16 109 -30 47 -13 140 -39 208 -56 67 -18
122 -37 122 -41 0 -5 -10 -7 -22 -4 -13 3 -50 7 -83 10 -33 2 -71 6 -85 9 -14
2 -43 7 -65 10 -22 3 -51 8 -65 10 -14 3 -38 7 -55 10 -119 20 -159 27 -164
31 -3 1 -24 6 -46 9 -22 4 -56 11 -75 16 -19 5 -51 12 -70 15 -19 3 -53 11
-75 17 -22 5 -49 12 -60 14 -11 2 -40 8 -65 14 -25 6 -55 12 -66 15 -12 3 -82
19 -155 36 -74 16 -146 32 -161 34 -15 2 -36 6 -47 10 -11 3 -30 8 -43 11 -65
13 -85 16 -113 19 -16 2 -30 4 -30 5 0 2 -19 5 -75 14 -19 3 -46 8 -60 11
-215 41 -584 36 -725 -10 -11 -3 -7 1 8 10 71 41 237 82 377 92 35 2 65 5 67
6 4 5 185 -1 258 -8z m1755 -411 c0 -2 -11 -4 -25 -4 -14 0 -25 4 -25 9 0 4
11 6 25 3 14 -2 25 -6 25 -8z m1378 -173 c18 -5 36 -10 40 -10 19 -2 119 -36
135 -47 17 -11 16 -12 -6 -18 -14 -3 -42 1 -63 10 -64 27 -145 45 -224 51 -82
6 -85 6 -75 23 8 13 137 7 193 -9z"/>
<path d="M6130 7307 c-89 -36 -97 -43 -91 -80 1 -4 3 -73 6 -154 l6 -147 -28
35 c-15 20 -35 42 -44 51 -8 9 -46 50 -84 92 -38 42 -73 76 -79 76 -6 -1 -35
-11 -64 -24 l-53 -23 71 -74 c289 -299 291 -301 307 -287 9 7 18 12 20 10 2
-1 18 4 36 11 l32 14 -1 252 c-1 139 -3 254 -5 255 -2 2 -15 -1 -29 -7z"/>
<path d="M5495 7081 c-37 -18 -95 -78 -95 -99 0 -6 -17 -1 -37 9 -25 13 -50
18 -73 15 -69 -9 -93 -25 -149 -96 l-19 -25 -7 27 -7 26 -59 -20 c-42 -14 -57
-23 -50 -32 5 -6 16 -33 24 -61 9 -27 40 -122 71 -210 62 -178 58 -174 141
-139 28 11 35 19 30 32 -4 9 -8 24 -10 32 -2 8 -21 65 -42 125 -51 149 -49
190 12 219 38 18 79 7 88 -23 3 -9 22 -61 42 -116 20 -55 38 -104 39 -110 3
-12 14 -41 27 -72 l9 -23 52 21 c29 11 54 22 56 24 2 2 -2 23 -9 46 -7 24 -13
46 -13 49 -1 3 -4 10 -8 15 -12 20 -58 177 -58 200 0 59 52 105 100 90 28 -9
76 -119 132 -303 12 -40 15 -42 43 -36 17 3 44 12 62 20 l32 13 -53 153 c-30
84 -59 164 -65 178 -35 84 -118 112 -206 71z"/>
<path d="M4787 6854 c-3 -4 -43 -12 -63 -13 -15 -1 -84 -65 -84 -77 0 -6 -5
-15 -12 -22 -9 -9 -16 -8 -31 5 -13 12 -36 18 -75 18 -69 0 -119 -28 -153 -83
-19 -31 -23 -34 -26 -17 -9 46 -10 46 -62 26 -28 -10 -52 -16 -55 -13 -11 11
-6 -13 30 -127 20 -63 38 -122 40 -130 18 -78 61 -201 70 -201 6 0 33 7 62 15
58 17 56 8 17 135 -58 184 -61 209 -31 255 18 27 67 41 95 26 12 -7 28 -37 41
-78 12 -38 24 -75 27 -83 4 -8 7 -17 7 -20 1 -3 12 -42 26 -87 23 -79 25 -82
49 -76 52 12 96 31 95 39 -1 5 -16 55 -33 111 -68 219 -64 257 29 286 24 7 47
-15 69 -66 11 -26 21 -51 22 -55 1 -4 3 -11 4 -17 3 -12 55 -185 60 -202 5
-16 19 -16 65 -3 67 19 69 26 33 120 -3 8 -7 20 -8 25 -2 6 -13 44 -26 85 -12
41 -23 78 -23 82 -1 3 -4 10 -8 14 -5 4 -8 15 -8 23 0 31 -57 88 -99 99 -22 5
-42 8 -44 6z"/>
<path d="M3998 6813 c-50 -15 -50 -13 -29 -90 l11 -42 61 21 c59 20 60 21 53
52 -17 79 -20 81 -96 59z"/>
<path d="M1825 6740 c-49 -11 -112 -48 -134 -78 -42 -59 -44 -147 -4 -201 42
-56 100 -82 251 -112 73 -14 112 -40 112 -75 0 -58 -58 -97 -142 -96 -57 1
-117 44 -118 85 0 22 -38 37 -65 27 -24 -9 -29 -10 -55 -10 -26 0 -25 -22 1
-80 26 -58 54 -87 106 -111 66 -30 161 -32 268 -5 47 11 104 63 123 111 46
116 -9 230 -128 267 -50 16 -163 41 -175 38 -14 -2 -66 32 -75 50 -22 42 21
78 105 86 48 5 101 -23 115 -62 10 -25 13 -26 68 -21 31 4 61 6 66 7 14 0 -3
62 -29 101 -34 52 -100 81 -189 84 -39 1 -84 -1 -101 -5z"/>
<path d="M2829 6676 c-1 -1 -2 -16 -13 -231 -4 -71 -9 -161 -12 -200 -12 -193
-11 -225 5 -226 109 -5 111 -5 112 10 0 9 2 50 5 91 11 213 18 241 65 266 38
19 72 18 100 -5 25 -20 26 -28 16 -326 l-2 -50 63 0 63 0 5 115 c13 266 8 301
-47 341 -39 28 -72 34 -145 30 -12 0 -38 -12 -58 -26 -20 -14 -39 -25 -41 -25
-2 0 -2 19 0 43 4 51 8 156 6 177 -1 12 -15 16 -61 16 -33 1 -60 1 -61 0z"/>
<path d="M4043 6637 c-49 -11 -49 -4 -8 -157 14 -52 28 -104 31 -115 3 -11 6
-24 8 -30 2 -5 6 -23 11 -40 25 -100 37 -133 48 -131 7 1 21 5 32 8 11 3 32 9
48 12 25 6 27 10 21 39 -7 40 -9 48 -17 67 -4 8 -8 26 -11 40 -2 14 -9 37 -15
53 -6 15 -9 27 -6 27 2 0 -2 18 -10 40 -8 22 -12 40 -8 40 3 0 0 7 -7 15 -7 8
-10 15 -7 15 3 0 -3 27 -13 59 -10 33 -15 62 -12 65 8 9 -37 5 -85 -7z"/>
<path d="M3885 6585 c-34 -10 -40 -16 -41 -41 -1 -16 -5 -63 -9 -104 -5 -41
-9 -94 -10 -118 -1 -23 -4 -45 -8 -48 -3 -3 -25 34 -48 82 -23 49 -52 112 -65
140 l-25 50 -54 -11 c-29 -5 -56 -13 -60 -16 -3 -4 -8 -37 -11 -75 -2 -38 -6
-91 -9 -119 -2 -27 -4 -68 -4 -89 -1 -37 -6 -30 -75 105 -57 113 -77 144 -92
142 -11 -1 -35 -4 -54 -6 -19 -3 -39 -6 -43 -6 -8 -1 91 -200 104 -211 3 -3 8
-10 10 -16 2 -6 30 -58 62 -116 l58 -105 52 10 c29 5 56 13 60 17 8 7 11 41
22 209 3 46 7 86 9 89 6 5 131 -250 128 -261 -2 -8 19 -6 93 8 37 8 38 8 41
47 1 18 5 49 8 68 3 19 8 62 11 95 3 33 8 71 10 85 6 40 16 121 21 167 4 39 2
43 -18 41 -13 -1 -41 -7 -63 -13z"/>
<path d="M2498 6545 c-1 -2 -16 -5 -33 -8 -97 -13 -166 -90 -181 -202 -3 -27
-6 -52 -7 -55 -3 -17 17 -104 29 -130 34 -67 119 -108 221 -105 60 1 77 5 106
28 41 31 73 73 79 102 2 14 -5 21 -32 27 -19 5 -45 12 -56 14 -16 5 -26 -2
-43 -29 -24 -39 -47 -47 -103 -34 -27 7 -41 17 -52 42 -31 64 -13 190 32 225
47 38 123 21 142 -32 12 -32 13 -33 64 -30 78 5 78 5 54 61 -28 69 -81 108
-158 118 -19 2 -40 6 -47 8 -6 2 -13 2 -15 0z"/>
<path d="M4494 4145 c-2 -5 -3 -239 -2 -520 l3 -510 123 -1 c67 -1 123 1 123
5 1 3 2 95 3 203 1 108 5 200 9 204 11 11 258 11 264 0 3 -5 6 -98 5 -207 0
-142 3 -199 11 -202 7 -2 64 -3 127 -3 l115 1 0 130 c0 72 4 136 8 143 5 6 5
12 0 12 -12 0 -11 434 2 442 6 5 6 8 0 8 -6 0 -10 58 -9 154 l1 154 -29 -8
c-15 -5 -30 -5 -32 -2 -3 6 -48 6 -177 2 -15 0 -17 -20 -15 -181 l1 -180 -42
2 c-23 2 -44 1 -47 -2 -6 -6 -172 -2 -183 4 -4 3 -8 83 -8 177 1 118 -3 174
-10 176 -25 10 -238 9 -241 -1z"/>
<path d="M5660 3877 c-90 -10 -154 -42 -191 -95 -25 -36 -55 -120 -46 -128 2
-3 24 -7 48 -10 49 -5 91 -11 132 -19 22 -4 30 0 46 26 25 41 48 55 97 58 48
2 79 -20 88 -62 6 -26 3 -30 -39 -48 -25 -11 -55 -22 -65 -24 -11 -2 -25 -7
-31 -10 -5 -4 -20 -8 -32 -10 -40 -6 -122 -32 -160 -50 -162 -77 -126 -366 50
-402 88 -18 187 5 247 58 l44 39 6 -34 c4 -19 12 -38 19 -43 9 -8 172 -11 210
-4 4 0 3 9 -2 20 -18 32 -21 76 -23 298 -2 251 -13 314 -62 367 -46 49 -77 63
-161 72 -86 9 -102 9 -175 1z m174 -464 c-4 -69 -26 -115 -68 -136 -39 -20
-55 -23 -86 -14 -36 9 -53 42 -45 87 5 29 13 41 38 53 52 24 80 36 122 51 22
8 40 15 41 15 0 1 0 -25 -2 -56z"/>
<path d="M6988 3879 c-16 -4 -28 -5 -28 -2 0 3 -6 0 -13 -6 -8 -6 -16 -8 -19
-5 -20 19 -152 -86 -183 -146 -43 -83 -60 -209 -44 -320 20 -134 112 -265 201
-286 112 -27 227 -22 309 14 46 20 129 103 129 128 0 8 4 14 9 14 10 0 22 40
13 41 -4 0 -29 2 -57 5 -27 2 -63 7 -80 10 -52 10 -79 5 -98 -17 -23 -29 -85
-49 -114 -38 -46 17 -83 73 -83 124 l0 24 178 0 c97 0 200 0 227 0 l51 1 -3
43 c-5 96 -14 161 -28 193 -8 19 -12 34 -10 34 11 0 -59 98 -88 123 -41 35
-118 63 -181 66 -28 1 -52 3 -55 5 -3 2 -18 0 -33 -5z m89 -175 c30 -8 63 -63
66 -109 l2 -37 -108 -2 c-105 -1 -107 -1 -107 22 0 33 24 86 51 111 23 21 54
26 96 15z"/>
<path d="M6494 3869 c-11 -6 -35 -34 -53 -62 l-32 -52 2 47 c2 26 0 51 -4 55
-9 8 -206 12 -208 3 0 -3 -2 -170 -2 -372 -1 -238 2 -369 8 -371 6 -2 57 -3
115 -3 l105 1 1 160 c2 263 16 336 70 371 21 14 31 15 62 6 20 -6 37 -10 38
-9 5 6 64 186 64 196 0 30 -120 52 -166 30z"/>
<path d="M7830 3867 c-41 -19 -67 -41 -100 -82 l-30 -38 0 59 0 59 -105 0
c-99 1 -105 0 -106 -20 -4 -77 -3 -718 1 -724 3 -4 55 -7 115 -7 l110 1 1 205
c0 232 6 279 38 309 44 41 106 28 122 -27 4 -15 9 -128 10 -252 1 -124 3 -228
3 -231 1 -3 52 -5 114 -5 l112 1 -1 265 c0 146 -4 287 -8 314 -12 85 -59 153
-122 176 -34 13 -123 11 -154 -3z"/>
</g>
</svg>
